<?xml version="1.0" encoding="utf-8"?>
<!-- Generator: Adobe Illustrator 21.0.2, SVG Export Plug-In . SVG Version: 6.00 Build 0)  -->
<svg version="1.1" id="Layer_1" xmlns="http://www.w3.org/2000/svg" xmlns:xlink="http://www.w3.org/1999/xlink" x="0px" y="0px"
	 viewBox="0 0 100 100" style="enable-background:new 0 0 100 100;" xml:space="preserve">
<style type="text/css">
	.st0{fill:#DF1C22;}
	.st1{clip-path:url(#SVGID_2_);}
	.st2{fill:#FF2939;}
	.st3{fill:#D31C29;}
	.st4{fill:#FFFFFF;}
	.st5{fill:#BCBCBC;}
</style>
<ellipse transform="matrix(0.1203 -0.9927 0.9927 0.1203 -146.2036 -64.9979)" class="st0" cx="-109.8" cy="50" rx="50" ry="50"/>
<g>
	<defs>
		
			<ellipse id="SVGID_1_" transform="matrix(0.1203 -0.9927 0.9927 0.1203 -146.2036 -64.9979)" cx="-109.8" cy="50" rx="50" ry="50"/>
	</defs>
	<clipPath id="SVGID_2_">
		<use xlink:href="#SVGID_1_"  style="overflow:visible;"/>
	</clipPath>
	<g class="st1">
		
			<rect x="-73.7" y="19.6" transform="matrix(0.7396 0.6731 -0.6731 0.7396 46.4616 74.6976)" class="st2" width="0.8" height="155.5"/>
		
			<rect x="-75.7" y="17.8" transform="matrix(0.7396 0.6731 -0.6731 0.7396 44.7398 75.5576)" class="st2" width="0.8" height="155.5"/>
		
			<rect x="-77.7" y="16" transform="matrix(0.7396 0.6731 -0.6731 0.7396 43.0181 76.4176)" class="st2" width="0.8" height="155.5"/>
		
			<rect x="-79.6" y="14.3" transform="matrix(0.7396 0.6731 -0.6731 0.7396 41.2963 77.2776)" class="st2" width="0.8" height="155.5"/>
		
			<rect x="-81.6" y="12.5" transform="matrix(0.7396 0.6731 -0.6731 0.7396 39.5746 78.1376)" class="st2" width="0.8" height="155.5"/>
		
			<rect x="-83.6" y="10.7" transform="matrix(0.7396 0.6731 -0.6731 0.7396 37.8528 78.9975)" class="st2" width="0.8" height="155.5"/>
		
			<rect x="-85.5" y="8.9" transform="matrix(0.7396 0.6731 -0.6731 0.7396 36.1311 79.8575)" class="st2" width="0.8" height="155.5"/>
		
			<rect x="-87.5" y="7.1" transform="matrix(0.7396 0.6731 -0.6731 0.7396 34.4093 80.7175)" class="st2" width="0.8" height="155.5"/>
		
			<rect x="-89.5" y="5.3" transform="matrix(0.7396 0.6731 -0.6731 0.7396 32.6876 81.5775)" class="st2" width="0.8" height="155.5"/>
		
			<rect x="-91.5" y="3.5" transform="matrix(0.7396 0.6731 -0.6731 0.7396 30.9658 82.4375)" class="st2" width="0.8" height="155.5"/>
		
			<rect x="-93.4" y="1.7" transform="matrix(0.7396 0.6731 -0.6731 0.7396 29.2441 83.2975)" class="st2" width="0.8" height="155.5"/>
		
			<rect x="-95.4" y="-0.1" transform="matrix(0.7396 0.6731 -0.6731 0.7396 27.5223 84.1574)" class="st2" width="0.8" height="155.5"/>
		
			<rect x="-97.4" y="-1.9" transform="matrix(0.7396 0.6731 -0.6731 0.7396 25.8006 85.0174)" class="st2" width="0.8" height="155.5"/>
		
			<rect x="-99.4" y="-3.7" transform="matrix(0.7396 0.6731 -0.6731 0.7396 24.0788 85.8774)" class="st2" width="0.8" height="155.5"/>
		
			<rect x="-101.3" y="-5.5" transform="matrix(0.7396 0.6731 -0.6731 0.7396 22.3571 86.7374)" class="st2" width="0.8" height="155.5"/>
		
			<rect x="-103.3" y="-7.3" transform="matrix(0.7396 0.6731 -0.6731 0.7396 20.6353 87.5974)" class="st2" width="0.8" height="155.5"/>
		
			<rect x="-105.3" y="-9.1" transform="matrix(0.7396 0.6731 -0.6731 0.7396 18.9136 88.4574)" class="st2" width="0.8" height="155.5"/>
		
			<rect x="-107.2" y="-10.9" transform="matrix(0.7396 0.6731 -0.6731 0.7396 17.1918 89.3173)" class="st2" width="0.8" height="155.5"/>
		
			<rect x="-109.2" y="-12.7" transform="matrix(0.7396 0.6731 -0.6731 0.7396 15.4701 90.1773)" class="st2" width="0.8" height="155.5"/>
		
			<rect x="-111.2" y="-14.5" transform="matrix(0.7396 0.6731 -0.6731 0.7396 13.7483 91.0373)" class="st2" width="0.8" height="155.5"/>
		
			<rect x="-113.2" y="-16.3" transform="matrix(0.7396 0.6731 -0.6731 0.7396 12.0266 91.8973)" class="st2" width="0.8" height="155.5"/>
		
			<rect x="-115.1" y="-18.1" transform="matrix(0.7396 0.6731 -0.6731 0.7396 10.3048 92.7573)" class="st2" width="0.8" height="155.5"/>
		
			<rect x="-117.1" y="-19.9" transform="matrix(0.7396 0.6731 -0.6731 0.7396 8.5831 93.6172)" class="st2" width="0.8" height="155.5"/>
		
			<rect x="-119.1" y="-21.6" transform="matrix(0.7396 0.6731 -0.6731 0.7396 6.8613 94.4772)" class="st2" width="0.8" height="155.5"/>
		
			<rect x="-121" y="-23.4" transform="matrix(0.7396 0.6731 -0.6731 0.7396 5.1396 95.3372)" class="st2" width="0.8" height="155.5"/>
		
			<rect x="-123" y="-25.2" transform="matrix(0.7396 0.6731 -0.6731 0.7396 3.4178 96.1972)" class="st2" width="0.8" height="155.5"/>
		
			<rect x="-125" y="-27" transform="matrix(0.7396 0.6731 -0.6731 0.7396 1.6961 97.0572)" class="st2" width="0.8" height="155.5"/>
		
			<rect x="-127" y="-28.8" transform="matrix(0.7396 0.6731 -0.6731 0.7396 -2.568656e-02 97.9172)" class="st2" width="0.8" height="155.5"/>
		
			<rect x="-128.9" y="-30.6" transform="matrix(0.7396 0.6731 -0.6731 0.7396 -1.7474 98.7771)" class="st2" width="0.8" height="155.5"/>
		
			<rect x="-130.9" y="-32.4" transform="matrix(0.7396 0.6731 -0.6731 0.7396 -3.4692 99.6371)" class="st2" width="0.8" height="155.5"/>
		
			<rect x="-132.9" y="-34.2" transform="matrix(0.7396 0.6731 -0.6731 0.7396 -5.1909 100.4971)" class="st2" width="0.8" height="155.5"/>
		
			<rect x="-134.8" y="-36" transform="matrix(0.7396 0.6731 -0.6731 0.7396 -6.9127 101.3571)" class="st2" width="0.8" height="155.5"/>
		
			<rect x="-136.8" y="-37.8" transform="matrix(0.7396 0.6731 -0.6731 0.7396 -8.6344 102.2171)" class="st2" width="0.8" height="155.5"/>
		
			<rect x="-138.8" y="-39.6" transform="matrix(0.7396 0.6731 -0.6731 0.7396 -10.3562 103.0771)" class="st2" width="0.8" height="155.5"/>
		
			<rect x="-140.8" y="-41.4" transform="matrix(0.7396 0.6731 -0.6731 0.7396 -12.0779 103.937)" class="st2" width="0.8" height="155.5"/>
		
			<rect x="-142.7" y="-43.2" transform="matrix(0.7396 0.6731 -0.6731 0.7396 -13.7997 104.797)" class="st2" width="0.8" height="155.5"/>
		
			<rect x="-144.7" y="-45" transform="matrix(0.7396 0.6731 -0.6731 0.7396 -15.5214 105.657)" class="st2" width="0.8" height="155.5"/>
		
			<rect x="-146.7" y="-46.8" transform="matrix(0.7396 0.6731 -0.6731 0.7396 -17.2432 106.517)" class="st2" width="0.8" height="155.5"/>
		
			<rect x="-148.7" y="-48.6" transform="matrix(0.7396 0.6731 -0.6731 0.7396 -18.9649 107.377)" class="st2" width="0.8" height="155.5"/>
		
			<rect x="-150.6" y="-50.4" transform="matrix(0.7396 0.6731 -0.6731 0.7396 -20.6867 108.237)" class="st2" width="0.8" height="155.5"/>
		
			<rect x="-152.6" y="-52.2" transform="matrix(0.7396 0.6731 -0.6731 0.7396 -22.4084 109.0969)" class="st2" width="0.8" height="155.5"/>
		
			<rect x="-154.6" y="-54" transform="matrix(0.7396 0.6731 -0.6731 0.7396 -24.1302 109.9569)" class="st2" width="0.8" height="155.5"/>
		
			<rect x="-156.5" y="-55.7" transform="matrix(0.7396 0.6731 -0.6731 0.7396 -25.8519 110.8169)" class="st2" width="0.8" height="155.5"/>
		
			<rect x="-158.5" y="-57.5" transform="matrix(0.7396 0.6731 -0.6731 0.7396 -27.5737 111.6769)" class="st2" width="0.8" height="155.5"/>
	</g>
</g>
<path class="st3" d="M-71.5,61.1c-6.4,3.8-10.3,5.7-11.7,5.7c-5.5,0-7.8-3-7.8-8.8c0-4.7,1.3-9.8,3.7-15.2c2.4-5.4,5.1-10,3.7-12.1
	c-0.4-0.5-1.1-1.3-3.2-2.7c-0.8-0.5-2.4,0-3.1,0.6l0,0c-2.1,1.4-5,4.4-8.7,9.1c-4.5,5.7-7.7,9.7-9.7,12.1c-0.5,0.6-1.5,0.2-1.4-0.7
	c1.6-9.5,2.8-13.9,3.2-15.3c0.2-0.6,0.2-1.4,0.2-1.7c0.1-1.1-2.3-4.1-4.4-4.1c-3,0-6.2,2-9.7,6.3c-5,5.6-9,10.7-10.8,12.9
	c-0.5,0.6-1.4,0.4-1.6-0.3c0-0.1,0-0.6,0-0.6c2.1-6.1,4.5-12.5,4.5-15.6c0-2.7-1.6-4.1-4.8-4.1c-3,0-5.2,3.5-5.6,6.4
	c-0.3,3.1-2.3,10-5.8,20.6c-1.4,4-3,8.5-4.9,13.5c-0.5,1.2-0.4,2.6,0,4.2c0.1,0.4,0.3,0.7,0.6,1c0.9,0.9,1.5,1,2.9,1
	c2.4,0,7.3-5,14.5-14.9c5.4-7.3,9.2-11.8,11.3-13.4c0.7-0.5,1.7-0.2,1.9,0.7l0.2,0.5c0.2,0.6,0.2,1.3-0.1,2
	c-0.3,0.9-0.9,2.4-1.8,4.5c-1.4,3.4-2.1,6.7-2.1,9.9c0,5,1.2,5.9,4.7,5.9c2,0,5.1-2.3,9.4-7.1c3.1-3.4,5.8-6.9,7.5-9
	c0.5-0.7,1.5-0.3,1.6,0.5c0,0.7,0,1.3,0,1.6c0,3.7,0,10.1,2.4,13.4c2.5,3.3,5.6,5,9.3,5.3l0.3,0c1.8,0,6.9-1.1,9.9-3.4
	c3-2.3,5-4.3,7-6.9c0,0,0.4-1.1-0.2-1.6C-70.5,60.9-71,60.9-71.5,61.1z"/>
<text transform="matrix(1 0 0 1 -129.2979 36.5)"><tspan x="0" y="0" class="st4" style="font-family:'DINOT'; font-size:12px;">Service</tspan><tspan x="-12.8" y="14.4" class="st4" style="font-family:'DINOT'; font-size:12px;">Temporarily</tspan><tspan x="-11.6" y="28.8" class="st4" style="font-family:'DINOT'; font-size:12px;">Unavailable</tspan></text>
<g>
	<g>
		<path class="st5" d="M50,99.8c-2,0-4-0.1-6-0.4c-13.2-1.6-25-8.2-33.2-18.7C2.6,70.3-1,57.3,0.6,44.1C3.9,16.8,28.7-2.6,56,0.7
			c13.2,1.6,25,8.2,33.2,18.7C97.4,29.8,101,42.8,99.4,56l-1-0.1l1,0.1C96.3,81.3,74.8,99.8,50,99.8z M49.9,2.3
			C39.3,2.3,29,5.8,20.5,12.5c-10,7.9-16.4,19.2-17.9,31.8C1,57,4.5,69.5,12.4,79.5s19.2,16.4,31.8,17.9c1.9,0.2,3.9,0.4,5.8,0.4
			c23.8,0,44.4-17.8,47.4-42c1.5-12.7-2-25.2-9.8-35.2c-7.9-10-19.2-16.4-31.8-17.9C53.8,2.4,51.8,2.3,49.9,2.3z"/>
	</g>
	<g>
		<path class="st5" d="M34.4,41.8c-1,0-1.7-0.3-2.3-0.9l0.5-0.5c0.6,0.6,1.1,0.7,1.8,0.7c1,0,1.6-0.4,1.6-1.2c0-0.4-0.1-0.6-0.3-0.8
			c-0.2-0.2-0.4-0.3-0.9-0.3L34,38.7c-0.5-0.1-0.9-0.2-1.2-0.5c-0.3-0.3-0.5-0.7-0.5-1.3c0-1.1,0.8-1.9,2.1-1.9c0.9,0,1.4,0.2,2,0.7
			L36,36.2c-0.4-0.4-0.9-0.6-1.6-0.6c-0.9,0-1.4,0.5-1.4,1.2c0,0.3,0.1,0.6,0.3,0.8c0.2,0.2,0.5,0.3,0.9,0.3l0.8,0.1
			c0.6,0.1,0.9,0.2,1.2,0.5c0.4,0.3,0.6,0.8,0.6,1.3C36.7,41.1,35.8,41.8,34.4,41.8z"/>
		<path class="st5" d="M38.2,41.8v-6.7h4.1v0.6h-3.4v2.3h2.9v0.6h-2.9v2.4h3.4v0.6H38.2z"/>
		<path class="st5" d="M47.6,41.8l-1.5-3h-1.6v3h-0.7v-6.7h2.6c1.2,0,2,0.7,2,1.9c0,1-0.6,1.6-1.4,1.8l1.6,3H47.6z M46.3,35.7h-1.8
			v2.4h1.8c0.8,0,1.3-0.4,1.3-1.2C47.6,36.2,47.1,35.7,46.3,35.7z"/>
		<path class="st5" d="M51.8,41.8h-0.6L49,35.1h0.7l1.7,5.4l1.7-5.4H54L51.8,41.8z"/>
		<path class="st5" d="M55,41.8v-6.7h0.7v6.7H55z"/>
		<path class="st5" d="M59.7,41.8c-0.7,0-1.3-0.2-1.7-0.7c-0.6-0.6-0.7-1.2-0.7-2.7c0-1.5,0-2.1,0.7-2.7c0.4-0.4,1-0.7,1.7-0.7
			c1.2,0,2.1,0.7,2.3,2h-0.7c-0.2-0.8-0.7-1.3-1.6-1.3c-0.4,0-0.8,0.2-1.2,0.5c-0.4,0.4-0.5,0.9-0.5,2.3c0,1.4,0,1.9,0.5,2.3
			c0.3,0.3,0.7,0.5,1.2,0.5c0.8,0,1.4-0.5,1.6-1.3H62C61.8,41.1,60.9,41.8,59.7,41.8z"/>
		<path class="st5" d="M63.6,41.8v-6.7h4.1v0.6h-3.4v2.3h2.9v0.6h-2.9v2.4h3.4v0.6H63.6z"/>
		<path class="st5" d="M22.7,47v6H22v-6h-1.9v-0.6h4.6V47H22.7z"/>
		<path class="st5" d="M25.9,53v-6.7H30V47h-3.4v2.3h2.9V50h-2.9v2.4H30V53H25.9z"/>
		<path class="st5" d="M36.5,53v-5.1l-1.8,4h-0.6l-1.9-4V53h-0.7v-6.7h0.7l2.2,4.7l2.1-4.7h0.7V53H36.5z"/>
		<path class="st5" d="M41.6,50.3h-1.8V53h-0.7v-6.7h2.5c1.2,0,2.1,0.8,2.1,2C43.7,49.5,42.8,50.3,41.6,50.3z M41.6,47h-1.7v2.6h1.7
			c0.8,0,1.4-0.4,1.4-1.3C43,47.4,42.4,47,41.6,47z"/>
		<path class="st5" d="M48.7,52.4c-0.4,0.4-1,0.7-1.7,0.7s-1.3-0.2-1.7-0.7c-0.6-0.6-0.7-1.2-0.7-2.7c0-1.5,0-2.1,0.7-2.7
			c0.4-0.4,1-0.7,1.7-0.7s1.2,0.2,1.7,0.7c0.6,0.6,0.7,1.2,0.7,2.7C49.4,51.2,49.4,51.8,48.7,52.4z M48.2,47.4
			c-0.3-0.3-0.7-0.5-1.2-0.5s-0.8,0.2-1.2,0.5c-0.4,0.4-0.5,0.9-0.5,2.3c0,1.4,0,1.9,0.5,2.3c0.3,0.3,0.7,0.5,1.2,0.5
			s0.8-0.2,1.2-0.5c0.4-0.4,0.5-0.9,0.5-2.3C48.7,48.3,48.7,47.8,48.2,47.4z"/>
		<path class="st5" d="M54.9,53l-1.5-3h-1.6v3h-0.7v-6.7h2.6c1.2,0,2,0.7,2,1.9c0,1-0.6,1.6-1.4,1.8l1.6,3H54.9z M53.6,47h-1.8v2.4
			h1.8c0.8,0,1.3-0.4,1.3-1.2C54.9,47.4,54.3,47,53.6,47z"/>
		<path class="st5" d="M61.1,53l-0.5-1.5h-2.9L57.1,53h-0.8l2.5-6.7h0.6l2.4,6.7H61.1z M59.1,47.4l-1.3,3.5h2.5L59.1,47.4z"/>
		<path class="st5" d="M66.8,53l-1.5-3h-1.6v3h-0.7v-6.7h2.6c1.2,0,2,0.7,2,1.9c0,1-0.6,1.6-1.4,1.8l1.6,3H66.8z M65.4,47h-1.8v2.4
			h1.8c0.8,0,1.3-0.4,1.3-1.2C66.8,47.4,66.2,47,65.4,47z"/>
		<path class="st5" d="M69.1,53v-6.7h0.7V53H69.1z"/>
		<path class="st5" d="M71.7,53v-6.7h0.7v6h3.4V53H71.7z"/>
		<path class="st5" d="M78.1,50.2V53h-0.7v-2.8l-2-3.9h0.8l1.6,3.2l1.6-3.2h0.8L78.1,50.2z"/>
		<path class="st5" d="M23.3,64.3c-1.3,0-2.3-0.9-2.3-2.3v-4.5h0.7V62c0,1,0.6,1.7,1.6,1.7s1.6-0.7,1.6-1.7v-4.4h0.7V62
			C25.6,63.4,24.6,64.3,23.3,64.3z"/>
		<path class="st5" d="M31.7,64.2l-3.5-5.3v5.3h-0.7v-6.7h0.7l3.5,5.3v-5.3h0.7v6.7H31.7z"/>
		<path class="st5" d="M38.2,64.2l-0.5-1.5h-2.9l-0.5,1.5h-0.8l2.5-6.7h0.6l2.4,6.7H38.2z M36.2,58.6L35,62.1h2.5L36.2,58.6z"/>
		<path class="st5" d="M41.4,64.2h-0.6l-2.2-6.7h0.7l1.7,5.4l1.7-5.4h0.7L41.4,64.2z"/>
		<path class="st5" d="M48.1,64.2l-0.5-1.5h-2.9l-0.5,1.5h-0.8l2.5-6.7h0.6l2.4,6.7H48.1z M46.1,58.6l-1.3,3.5h2.5L46.1,58.6z"/>
		<path class="st5" d="M49.9,64.2v-6.7h0.7v6.7H49.9z"/>
		<path class="st5" d="M52.5,64.2v-6.7h0.7v6h3.4v0.6H52.5z"/>
		<path class="st5" d="M61.8,64.2l-0.5-1.5h-2.9l-0.5,1.5h-0.8l2.5-6.7h0.6l2.4,6.7H61.8z M59.8,58.6l-1.3,3.5h2.5L59.8,58.6z"/>
		<path class="st5" d="M66.2,64.2h-2.6v-6.7h2.5c1.2,0,2,0.7,2,1.8c0,0.7-0.4,1.3-1,1.5c0.6,0.2,1.1,0.8,1.1,1.6
			C68.2,63.6,67.4,64.2,66.2,64.2z M66.1,58.2h-1.7v2.3h1.7c0.7,0,1.3-0.4,1.3-1.2S66.8,58.2,66.1,58.2z M66.2,61.1h-1.8v2.4h1.8
			c0.8,0,1.3-0.5,1.3-1.2S67,61.1,66.2,61.1z"/>
		<path class="st5" d="M69.9,64.2v-6.7h0.7v6H74v0.6H69.9z"/>
		<path class="st5" d="M75.2,64.2v-6.7h4.1v0.6H76v2.3h2.9v0.6H76v2.4h3.4v0.6H75.2z"/>
	</g>
</g>
</svg>
